<?xml version="1.0" encoding="UTF-8" standalone="no"?>
<!DOCTYPE svg PUBLIC "-//W3C//DTD SVG 1.1//EN" "http://www.w3.org/Graphics/SVG/1.1/DTD/svg11.dtd">
<svg version="1.1" xmlns="http://www.w3.org/2000/svg" xmlns:xlink="http://www.w3.org/1999/xlink" preserveAspectRatio="xMidYMid meet" viewBox="0 0 640 640" width="640" height="640"><defs><path d="M0 0L637.62 445.71L0 445.71L0 0Z" id="d2rhifJFCO"></path><path d="M0 295.24L660.95 34.29L0 34.29L0 295.24Z" id="bdtvuWCti"></path><path d="M648.57 -7.14L-8.57 647.14L648.57 647.14L648.57 -7.14Z" id="a3hUwB2d04"></path><path d="M310 -4.76L153.81 634.29L310 634.29L310 -4.76Z" id="i2poX87Zv4"></path><path d="M699.52 218.57L0 0L699.52 0L699.52 218.57Z" id="f2SEx8GF2e"></path><path d="M719.05 -21.9C724.57 -21.9 729.05 -17.43 729.05 -11.9C729.05 27.05 729.05 133.9 729.05 172.86C729.05 178.38 724.57 182.86 719.05 182.86C574.38 182.86 150.38 182.86 5.71 182.86C0.19 182.86 -4.29 178.38 -4.29 172.86C-4.29 133.9 -4.29 27.05 -4.29 -11.9C-4.29 -17.43 0.19 -21.9 5.71 -21.9C150.38 -21.9 574.38 -21.9 719.05 -21.9Z" id="b1zOttmrwF"></path><path d="M673.81 414.29L260.48 157.14L673.81 157.14L673.81 414.29Z" id="b1G5cyU4EW"></path><path d="M-228.1 449.52L337.62 164.76L-228.1 164.76L-228.1 449.52Z" id="e1J6cGtfU"></path></defs><g><g><g><g><filter id="shadow11813138" x="-15" y="-15" width="668.62" height="476.71" filterUnits="userSpaceOnUse" primitiveUnits="userSpaceOnUse"><feFlood></feFlood><feComposite in2="SourceAlpha" operator="in"></feComposite><feGaussianBlur stdDeviation="1"></feGaussianBlur><feOffset dx="1" dy="1" result="afterOffset"></feOffset><feFlood flood-color="#000000" flood-opacity="0.03"></feFlood><feComposite in2="afterOffset" operator="in"></feComposite><feMorphology operator="dilate" radius="7"></feMorphology><feComposite in2="SourceAlpha" operator="out"></feComposite></filter><path d="M0 0L637.62 445.71L0 445.71L0 0Z" id="c153MtSyGe" fill="white" fill-opacity="1" filter="url(#shadow11813138)"></path></g><use xlink:href="#d2rhifJFCO" opacity="0.08" fill="#358977" fill-opacity="1"></use></g><g><use xlink:href="#bdtvuWCti" opacity="0.05" fill="#08656f" fill-opacity="1"></use><g><use xlink:href="#bdtvuWCti" opacity="0.05" fill-opacity="0" stroke="#08656f" stroke-width="1" stroke-opacity="1"></use></g></g><g><use xlink:href="#a3hUwB2d04" opacity="0.05" fill="#08656f" fill-opacity="1"></use><g><use xlink:href="#a3hUwB2d04" opacity="0.05" fill-opacity="0" stroke="#08656f" stroke-width="1" stroke-opacity="1"></use></g></g><g><g><filter id="shadow2513816" x="102.81" y="-55.76" width="269.19" height="757.05" filterUnits="userSpaceOnUse" primitiveUnits="userSpaceOnUse"><feFlood></feFlood><feComposite in2="SourceAlpha" operator="in"></feComposite><feGaussianBlur stdDeviation="3"></feGaussianBlur><feOffset dx="11" dy="16" result="afterOffset"></feOffset><feFlood flood-color="#000000" flood-opacity="0.04"></feFlood><feComposite in2="afterOffset" operator="in"></feComposite><feMorphology operator="dilate" radius="12"></feMorphology><feComposite in2="SourceAlpha" operator="out"></feComposite></filter><path d="M310 -4.76L153.81 634.29L310 634.29L310 -4.76Z" id="b173z0u6MA" fill="white" fill-opacity="1" filter="url(#shadow2513816)"></path></g><use xlink:href="#i2poX87Zv4" opacity="0.11" fill="#08656f" fill-opacity="1"></use></g><g><g><filter id="shadow11960658" x="-98" y="-98" width="896.52" height="415.57" filterUnits="userSpaceOnUse" primitiveUnits="userSpaceOnUse"><feFlood></feFlood><feComposite in2="SourceAlpha" operator="in"></feComposite><feGaussianBlur stdDeviation="5.66"></feGaussianBlur><feOffset dx="1" dy="1" result="afterOffset"></feOffset><feFlood flood-color="#000000" flood-opacity="0.04"></feFlood><feComposite in2="afterOffset" operator="in"></feComposite><feMorphology operator="dilate" radius="28"></feMorphology><feComposite in2="SourceAlpha" operator="out"></feComposite></filter><path d="M699.52 218.57L0 0L699.52 0L699.52 218.57Z" id="d3KmB9Aqmg" fill="white" fill-opacity="1" filter="url(#shadow11960658)"></path></g><use xlink:href="#f2SEx8GF2e" opacity="0.07" fill="#08656f" fill-opacity="1"></use><g><use xlink:href="#f2SEx8GF2e" opacity="0.07" fill-opacity="0" stroke="#08656f" stroke-width="1" stroke-opacity="1"></use></g></g><g><use xlink:href="#b1zOttmrwF" opacity="1" fill="#ffffff" fill-opacity="1"></use></g><g><use xlink:href="#b1G5cyU4EW" opacity="1" fill="#ffffff" fill-opacity="1"></use></g><g><use xlink:href="#e1J6cGtfU" opacity="1" fill="#ffffff" fill-opacity="1"></use></g></g></g></svg>