<?xml version="1.0" encoding="UTF-8" standalone="no"?>
<!DOCTYPE svg PUBLIC "-//W3C//DTD SVG 1.1//EN" "http://www.w3.org/Graphics/SVG/1.1/DTD/svg11.dtd">
<svg version="1.1" xmlns="http://www.w3.org/2000/svg" xmlns:xlink="http://www.w3.org/1999/xlink" preserveAspectRatio="xMidYMid meet" viewBox="0 0 640 640" width="640" height="640"><defs><path d="M134.04 378.73L165.28 368.06L221.29 449.11L280.53 435.25L343 457.64L407.62 414.98L472.25 299.81L429.16 199.57L376.39 121.72L267.6 101.46L183.59 141.98L183.59 132.39" id="b4M44AqQC"></path><path d="M134.04 389.1L143.03 266.63L190.22 144.16" id="amGMSKpB7"></path><path d="M158.71 205.96L124.67 205.96L91.9 189.38L86.85 140.83L130.98 95.84L180.14 95.84L190.22 132.55L158.71 205.96Z" id="e5y6qCo414"></path><path d="M432.65 201.46L466.54 196.23L494.96 177.4L503.71 133.46L458.89 80.11L403.13 91.62L382.36 127.19L432.65 201.46Z" id="agInJoGNM"></path><path d="M162.13 366.63L222.81 448.65L278.99 437.42L346.4 457.64L402.58 419.44L472.25 301.46L540.79 412.7L540.79 518.31L510.45 523.93L362.13 555.39L283.48 558.76L83.48 486.85L134.04 376.74L162.13 366.63Z" id="d16WZtlZUn"></path></defs><g><g><g><g><use xlink:href="#b4M44AqQC" opacity="1" fill-opacity="0" stroke="#000000" stroke-width="6" stroke-opacity="1"></use></g></g><g><g><use xlink:href="#amGMSKpB7" opacity="1" fill-opacity="0" stroke="#000000" stroke-width="7" stroke-opacity="1"></use></g></g><g><use xlink:href="#e5y6qCo414" opacity="1" fill="#000000" fill-opacity="1"></use><g><use xlink:href="#e5y6qCo414" opacity="1" fill-opacity="0" stroke="#000000" stroke-width="6" stroke-opacity="1"></use></g></g><g><use xlink:href="#agInJoGNM" opacity="1" fill="#080000" fill-opacity="1"></use><g><use xlink:href="#agInJoGNM" opacity="1" fill-opacity="0" stroke="#000000" stroke-width="5" stroke-opacity="1"></use></g></g><g><use xlink:href="#d16WZtlZUn" opacity="1" fill="#000000" fill-opacity="1"></use><g><use xlink:href="#d16WZtlZUn" opacity="1" fill-opacity="0" stroke="#000000" stroke-width="4" stroke-opacity="1"></use></g></g></g></g></svg>